#!OML:ASF F:\VICON\USERDATA\INSTALL\rory3\rory3.ASF
:FULLY-SPECIFIED
:DEGREES
445
root -0.475852 18.2345 24.1727 -6.83982 -4.35958 -0.543911
lowerback 18.8354 -3.0663 -1.40649
upperback 2.60249 -3.96809 4.45387
thorax -7.28954 -1.83962 6.6118
lowerneck -5.42001 0.470995 -0.221892
upperneck 29.9349 2.26759 -6.16558
head 10.5258 0.287077 -1.95025
rclavicle -1.98785e-015 -1.11319e-014
rhumerus -63.3917 -43.3447 -18.8309
rradius 116
rwrist -29.4332
rhand 7.62498 2.97689
rfingers 7.12502
rthumb 32.8704 -24.0506
lclavicle -1.98785e-015 -1.11319e-014
lhumerus -50.0006 8.72334 73.4073
lradius 48.0419
lwrist 5.31281
lhand -10.3413 49.3876
lfingers 7.12502
lthumb 15.655 78.7742
rfemur -10.9263 4.4832 24.2869
rtibia 31.6148
rfoot -9.63393 -6.54207
rtoes 9.58274
lfemur -9.8189 3.45244 -18.6716
ltibia 67.0471
lfoot 11.2454 -1.05709
ltoes -12.3586
446
root -0.493732 18.2461 24.3634 -6.97883 -4.6164 -0.441803
lowerback 18.7848 -2.68673 -1.22499
upperback 2.92122 -3.46565 4.10843
thorax -7.00874 -1.61723 5.98648
lowerneck -6.30926 0.190551 0.625694
upperneck 30.1851 1.8189 -6.35146
head 10.7818 0.139533 -2.22174
rclavicle -3.79679e-014 -3.02153e-014
rhumerus -62.5182 -44.085 -20.0224
rradius 117.709
rwrist -25.986
rhand 7.5734 2.88255
rfingers 7.12502
rthumb 32.8213 -24.1552
lclavicle -3.79679e-014 -3.02153e-014
lhumerus -49.227 8.01379 73.691
lradius 48.1359
lwrist 5.4321
lhand -10.1994 49.4304
lfingers 7.12502
lthumb 15.7916 78.8062
rfemur -9.84149 4.49969 24.2879
rtibia 31.1746
rfoot -10.0961 -6.44514
rtoes 10.7288
lfemur -10.7603 3.89623 -18.6895
ltibia 67.2515
lfoot 9.74319 -0.832288
ltoes -10.4044
447
root -0.512261 18.2574 24.5554 -7.02123 -4.93879 -0.825748
lowerback 18.7346 -2.69154 -0.958394
upperback 2.91079 -3.41598 4.15747
thorax -7.0113 -1.5991 5.87261
lowerneck -6.12435 0.243267 0.675502
upperneck 30.3222 1.9337 -6.5176
head 10.8048 0.177843 -2.28212
rclavicle -1.43125e-014 3.65764e-014
rhumerus -59.8804 -43.1769 -22.7539
rradius 119.263
rwrist -22.9379
rhand 6.87731 2.8384
rfingers 7.12502
rthumb 32.1589 -24.3355
lclavicle -1.43125e-014 3.65764e-014
lhumerus -49.6333 8.37919 73.7245
lradius 48.2343
lwrist 5.4623
lhand -9.88774 49.2795
lfingers 7.12502
lthumb 16.0918 78.6314
rfemur -8.87997 4.62724 24.8306
rtibia 30.9112
rfoot -10.7124 -6.44339
rtoes 12.467
lfemur -11.7225 4.32919 -18.1363
ltibia 67.2669
lfoot 8.13978 -0.770562
ltoes -10.1207
448
root -0.532207 18.2522 24.7134 -6.96383 -5.39701 -1.45259
lowerback 19.2643 -2.5891 -0.422392
upperback 2.69166 -3.14871 4.23772
thorax -7.58873 -1.46222 5.6406
lowerneck -6.17691 0.20672 0.570167
upperneck 30.71 1.8575 -6.30601
head 10.9588 0.146235 -2.20493
rclavicle -9.93923e-016 -1.51076e-014
rhumerus -57.8993 -42.3009 -24.7827
rradius 120.643
rwrist -20.1095
rhand 6.60895 3.08773
rfingers 7.12502
rthumb 31.9034 -24.1375
lclavicle -9.93923e-016 -1.51076e-014
lhumerus -50.0815 8.37683 73.8197
lradius 48.43
lwrist 5.55611
lhand -9.70912 49.1799
lfingers 7.12502
lthumb 16.2637 78.5178
rfemur -8.20681 5.08363 25.7235
rtibia 30.6933
rfoot -11.1211 -6.69758
rtoes 13.0931
lfemur -12.9656 4.87251 -17.2337
ltibia 67.2553
lfoot 6.40341 -0.834413
ltoes -11.9926
449
root -0.547251 18.2405 24.863 -6.7746 -5.7134 -1.84076
lowerback 19.1742 -2.50272 -0.191074
upperback 2.53827 -2.97846 4.30996
thorax -7.7319 -1.3799 5.54757
lowerneck -5.46358 0.186262 0.460269
upperneck 30.564 1.77604 -6.13723
head 10.7545 0.128551 -2.1259
rclavicle 3.65764e-014 1.59028e-015
rhumerus -55.8335 -41.6381 -26.6822
rradius 121.756
rwrist -17.2665
rhand 6.73669 3.36053
rfingers 7.12502
rthumb 32.025 -23.8404
lclavicle 3.65764e-014 1.59028e-015
lhumerus -50.5658 8.58512 73.9206
lradius 48.7969
lwrist 5.58551
lhand -9.38367 49.351
lfingers 7.12502
lthumb 16.5771 78.663
rfemur -7.77509 5.36212 26.2781
rtibia 30.5587
rfoot -11.5201 -6.77609
rtoes 13.2379
lfemur -14.3906 5.20972 -16.7062
ltibia 67.084
lfoot 4.98723 -0.753343
ltoes -13.5306
450
root -0.553707 18.2402 25.0552 -6.81165 -5.90382 -1.48627
lowerback 18.8291 -2.36343 -0.427969
upperback 2.56637 -2.86983 4.10149
thorax -7.52331 -1.3293 5.40246
lowerneck -5.12369 0.153057 0.359724
upperneck 30.4727 1.68445 -5.95821
head 10.6463 0.1022 -2.04887
rclavicle -3.77691e-014 -2.8625e-014
rhumerus -53.5373 -40.9365 -28.9634
rradius 122.775
rwrist -14.4778
rhand 6.27877 3.27008
rfingers 7.12502
rthumb 31.5889 -24.0175
lclavicle -3.77691e-014 -2.8625e-014
lhumerus -50.6283 8.62475 74.1191
lradius 48.8637
lwrist 5.68336
lhand -8.9198 50.0248
lfingers 7.12502
lthumb 17.0236 79.2989
rfemur -7.04537 5.01077 25.8525
rtibia 30.5787
rfoot -12.2302 -6.30103
rtoes 12.7006
lfemur -15.1651 5.23431 -17.179
ltibia 66.5148
lfoot 3.54035 -0.242962
ltoes -12.5701
451
root -0.563386 18.2333 25.2338 -6.84288 -6.33509 -1.57689
lowerback 18.8342 -2.18413 -0.309472
upperback 2.60327 -2.61788 4.0147
thorax -7.51883 -1.21228 5.17658
lowerneck -5.08811 0.10777 0.236226
upperneck 30.5685 1.57974 -5.73014
head 10.6695 0.0646086 -1.95709
rclavicle 3.08116e-014 1.59028e-014
rhumerus -51.1956 -39.6683 -31.4667
rradius 123.733
rwrist -11.9051
rhand 5.40308 3.07756
rfingers 7.12502
rthumb 30.7544 -24.3704
lclavicle 3.08116e-014 1.59028e-014
lhumerus -50.5568 8.67539 74.2847
lradius 48.8998
lwrist 5.76086
lhand -8.57189 50.402
lfingers 7.12502
lthumb 17.3585 79.6469
rfemur -6.34602 5.11306 26.0071
rtibia 30.5971
rfoot -12.8528 -6.12026
rtoes 12.6054
lfemur -16.0171 5.46339 -17.0181
ltibia 65.9175
lfoot 2.03955 0.0759289
ltoes -11.1755
452
root -0.575759 18.2158 25.4038 -6.81028 -6.62099 -1.92389
lowerback 19.2607 -2.1135 -0.0106868
upperback 2.35289 -2.44426 4.02361
thorax -8.05152 -1.12123 5.01087
lowerneck -4.93404 0.142004 0.458254
upperneck 30.8715 1.63431 -5.84374
head 10.7587 0.0981937 -2.03882
rclavicle -4.16454e-014 -8.74653e-015
rhumerus -49.285 -37.7538 -33.5484
rradius 124.61
rwrist -9.44147
rhand 4.97699 3.08759
rfingers 7.12502
rthumb 30.348 -24.4361
lclavicle -4.16454e-014 -8.74653e-015
lhumerus -51.1048 8.67061 74.4009
lradius 49.2881
lwrist 5.89089
lhand -8.49654 50.3112
lfingers 7.12502
lthumb 17.431 79.5496
rfemur -5.68678 5.27054 26.4846
rtibia 30.5543
rfoot -13.3371 -6.19456
rtoes 12.107
lfemur -16.9834 5.64859 -16.5455
ltibia 65.226
lfoot 0.703035 0.169845
ltoes -11.5343
453
root -0.583806 18.1991 25.5852 -6.73587 -6.94828 -2.47457
lowerback 18.6955 -2.05273 0.526833
upperback 2.74325 -2.27867 4.09481
thorax -7.35143 -1.07501 4.68762
lowerneck -5.35964 0.136601 0.56706
upperneck 30.7218 1.61564 -5.84989
head 10.7847 0.0988785 -2.0599
rclavicle 6.89783e-014 -6.20208e-014
rhumerus -46.3706 -37.0208 -36.113
rradius 124.914
rwrist -6.63176
rhand 5.30147 3.34022
rfingers 7.12502
rthumb 30.6575 -24.126
lclavicle 6.89783e-014 -6.20208e-014
lhumerus -50.6134 8.98297 74.602
lradius 49.5258
lwrist 5.96539
lhand -8.4402 50.0752
lfingers 7.12502
lthumb 17.4852 79.3088
rfemur -4.96894 5.28395 27.1299
rtibia 30.4897
rfoot -13.8185 -6.10497
rtoes 12.022
lfemur -17.8407 5.78477 -15.9038
ltibia 64.5049
lfoot -0.692581 0.508445
ltoes -12.062
454
root -0.588261 18.1915 25.779 -6.70366 -7.32658 -2.64421
lowerback 18.797 -1.92042 0.786394
upperback 2.53212 -2.04618 4.02472
thorax -7.66537 -0.9629 4.42074
lowerneck -4.96768 0.0489512 0.461317
upperneck 30.635 1.44524 -5.66766
head 10.665 0.0358876 -1.9888
rclavicle 1.90833e-014 1.19271e-014
rhumerus -44.5228 -34.8782 -38.2023
rradius 125.441
rwrist -4.57935
rhand 4.49531 2.98651
rfingers 7.12502
rthumb 29.8885 -24.6209
lclavicle 1.90833e-014 1.19271e-014
lhumerus -51.0645 9.0236 74.6542
lradius 49.6785
lwrist 5.81566
lhand -8.37595 49.9857
lfingers 7.12502
lthumb 17.5471 79.2138
rfemur -4.21488 5.06651 27.2644
rtibia 30.5096
rfoot -14.2114 -5.83228
rtoes 12.1604
lfemur -18.4537 5.82649 -15.7535
ltibia 63.5546
lfoot -2.12256 1.12866
ltoes -12.3648
455
root -0.603596 18.1657 25.9148 -6.61173 -7.77179 -3.18266
lowerback 19.3284 -1.74958 1.19573
upperback 2.4541 -1.70958 4.08184
thorax -8.07275 -0.804832 4.19515
lowerneck -4.94747 0.0189156 0.364505
upperneck 30.5279 1.34158 -5.40511
head 10.614 0.00915865 -1.88428
rclavicle -1.5704e-014 3.97569e-015
rhumerus -42.2812 -33.147 -40.654
rradius 125.624
rwrist -2.59485
rhand 3.26869 2.55538
rfingers 7.12502
rthumb 28.7173 -25.2566
lclavicle -1.5704e-014 3.97569e-015
lhumerus -51.0283 9.03593 74.7967
lradius 49.891
lwrist 5.74263
lhand -8.08084 50.2145
lfingers 7.12502
lthumb 17.8311 79.417
rfemur -3.78403 5.71745 28.0725
rtibia 30.5538
rfoot -14.2524 -6.45003
rtoes 12.8499
lfemur -19.5613 5.96056 -15.0268
ltibia 62.6421
lfoot -3.1349 1.57714
ltoes -12.5841
456
root -0.610943 18.1385 26.0869 -6.50151 -7.93642 -3.25472
lowerback 19.1761 -1.66671 1.33146
upperback 2.52405 -1.58903 3.98954
thorax -7.92729 -0.75472 3.97519
lowerneck -5.32163 0.0579149 0.374801
upperneck 30.7246 1.35518 -5.20327
head 10.7623 0.0316962 -1.81712
rclavicle -4.67144e-015 -6.36111e-015
rhumerus -39.9629 -31.4564 -42.9957
rradius 125.512
rwrist -0.182347
rhand 2.52059 2.38564
rfingers 7.12502
rthumb 28.0024 -25.5453
lclavicle -4.67144e-015 -6.36111e-015
lhumerus -50.8458 9.12551 74.984
lradius 50.0883
lwrist 5.83058
lhand -8.13189 50.1002
lfingers 7.12502
lthumb 17.7819 79.3072
rfemur -3.29189 5.76839 28.1818
rtibia 30.6223
rfoot -14.6385 -6.49464
rtoes 13.0088
lfemur -20.4216 5.83448 -14.9516
ltibia 61.4492
lfoot -4.17959 2.1782
ltoes -12.6719
457
root -0.612549 18.1226 26.2507 -6.31356 -8.08798 -3.40889
lowerback 18.9849 -1.62735 1.4766
upperback 2.64909 -1.5224 3.96987
thorax -7.69522 -0.730813 3.84002
lowerneck -5.81005 0.113451 0.464036
upperneck 30.8058 1.43217 -5.19955
head 10.8937 0.0704482 -1.82691
rclavicle 2.83268e-014 -4.21423e-014
rhumerus -37.813 -29.2919 -45.163
rradius 125.475
rwrist 2.04391
rhand 2.26204 2.23305
rfingers 7.12502
rthumb 27.7552 -25.738
lclavicle 2.83268e-014 -4.21423e-014
lhumerus -50.4452 9.46196 75.1645
lradius 50.1153
lwrist 5.92353
lhand -8.39406 49.8161
lfingers 7.12502
lthumb 17.5296 79.0458
rfemur -2.85004 5.76251 28.3329
rtibia 30.6323
rfoot -15.161 -6.40715
rtoes 12.9507
lfemur -21.318 5.59766 -14.8037
ltibia 60.1148
lfoot -4.94512 2.8728
ltoes -11.7889
458
root -0.610363 18.112 26.422 -6.16727 -8.22375 -3.53031
lowerback 18.8551 -1.54979 1.70115
upperback 2.66271 -1.38621 3.9007
thorax -7.62439 -0.67303 3.59594
lowerneck -5.85657 0.1152 0.48477
upperneck 30.8123 1.4115 -5.11801
head 10.904 0.0726799 -1.80311
rclavicle 1.74931e-014 -6.2816e-014
rhumerus -35.7053 -27.7978 -47.1025
rradius 124.913
rwrist 4.4767
rhand 2.47054 2.55398
rfingers 7.12502
rthumb 27.9545 -25.3848
lclavicle 1.74931e-014 -6.2816e-014
lhumerus -50.2391 9.46152 75.3819
lradius 50.1489
lwrist 5.9456
lhand -8.39679 49.9452
lfingers 7.12502
lthumb 17.527 79.1751
rfemur -2.28355 5.53872 28.3917
rtibia 30.5041
rfoot -15.6087 -6.27559
rtoes 11.1736
lfemur -22.0156 5.2608 -14.7069
ltibia 58.5719
lfoot -5.80386 3.69454
ltoes -11.9732
459
root -0.609389 18.1039 26.6164 -6.10152 -8.3271 -3.55045
lowerback 18.79 -1.46328 1.91322
upperback 2.49052 -1.23149 3.80878
thorax -7.79049 -0.603268 3.33954
lowerneck -5.69387 0.0931597 0.39105
upperneck 31.0829 1.36125 -4.96608
head 10.9733 0.0547723 -1.74156
rclavicle -4.96962e-015 -1.59028e-015
rhumerus -34.4544 -25.4241 -48.5019
rradius 124.29
rwrist 7.1879
rhand 1.52647 2.57908
rfingers 7.12502
rthumb 27.0516 -25.5033
lclavicle -4.96962e-015 -1.59028e-015
lhumerus -50.5024 9.2717 75.643
lradius 50.2813
lwrist 5.93234
lhand -8.29466 50.132
lfingers 7.12502
lthumb 17.6253 79.3531
rfemur -1.45275 5.27076 28.3222
rtibia 30.1597
rfoot -16.0166 -6.13069
rtoes 10.3744
lfemur -22.4281 4.86101 -14.7052
ltibia 56.8439
lfoot -6.70749 4.54342
ltoes -12.5341
